<?xml version="1.0" encoding="iso-8859-1"?>
<!-- Generator: Adobe Illustrator 18.0.0, SVG Export Plug-In . SVG Version: 6.00 Build 0)  -->
<!DOCTYPE svg PUBLIC "-//W3C//DTD SVG 1.1//EN" "http://www.w3.org/Graphics/SVG/1.1/DTD/svg11.dtd">
<svg  width="30px" height="30px" version="1.1" id="Capa_1" xmlns="http://www.w3.org/2000/svg" xmlns:xlink="http://www.w3.org/1999/xlink" x="0px" y="0px"
	 viewBox="0 0 470.906 470.906" style="enable-background:new 0 0 470.906 470.906;" xml:space="preserve">
<path d="M470.835,144.226c-0.354-2.079-1.974-3.713-4.05-4.083c-52.378-9.353-89.847-1.666-112.057,6.429
	c-24.42,8.9-36.27,20.118-36.763,20.592c-0.758,0.729-1.267,1.677-1.455,2.711c-8.908,48.993-30.741,68.898-49.653,76.712
	c0.103-6.729,0.276-16.991,0.409-24.674c0.033-1.868-0.979-3.6-2.625-4.487c-1.645-0.889-3.647-0.784-5.191,0.27l-17.991,12.267
	c-2.37-0.042-9.646-0.042-12.017,0l-17.991-12.267c-1.544-1.053-3.547-1.158-5.191-0.27c-1.645,0.888-2.657,2.619-2.624,4.487
	c0.133,7.683,0.306,17.944,0.409,24.674c-18.911-7.813-40.743-27.719-49.651-76.712c-0.188-1.034-0.697-1.982-1.456-2.711
	c-0.492-0.474-12.343-11.691-36.763-20.592c-22.212-8.096-59.683-15.78-112.058-6.429c-2.072,0.37-3.686,2.001-4.044,4.075
	c-0.357,2.074,0.627,4.152,2.456,5.195c0.117,0.066,11.811,6.828,22.849,21.202c14.695,19.138,21.368,42.053,19.833,68.109
	c-0.086,1.456,0.468,2.876,1.517,3.89c1.048,1.014,2.489,1.515,3.939,1.383c0.157-0.017,15.863-1.387,33.067,5.3
	c22.84,8.876,37.043,27.203,42.216,54.473c0.455,2.398,2.552,4.069,4.907,4.069c1.691,0,3.367-1.102,4.088-2.127l0.005,0.004
	c5.087-7.222,14.793-14.605,48.207-14.605c32.958,0,44.717,27.763,47.216,38.688c0.128,0.739,1.3,5.255,5.079,5.255
	c3.658,0,4.89-4.753,4.957-5.255c2.073-9.739,14.258-38.688,47.216-38.688c33.414,0,43.12,7.384,48.207,14.605
	c0,0,1.371,1.753,3.28,2.034c2.732,0.402,5.33-1.267,5.844-3.98c5.145-27.126,19.232-45.408,41.873-54.339
	c17.222-6.793,33.26-5.446,33.41-5.434c1.455,0.14,2.892-0.369,3.94-1.383c1.048-1.014,1.603-2.434,1.517-3.89
	c-1.535-26.057,5.137-48.972,19.832-68.109c11.037-14.374,22.73-21.136,22.838-21.197
	C470.2,148.382,471.189,146.304,470.835,144.226z M437.889,164.144c-10.699,13.804-22.949,36.876-22.385,69.729
	c-6.82,0.076-18.967,1.055-31.956,6.102c-16.56,6.437-37.313,20.807-46.274,52.8c-10.054-8.098-25.629-11.665-49.649-11.665
	c-22.184,0-36.231,11.245-44.108,20.679c-3.316,3.971-6.032,8.252-8.127,12.383c-2.095-4.131-4.811-8.412-8.127-12.383
	c-7.878-9.434-21.924-20.679-44.107-20.679c-23.939,0-39.491,3.543-49.549,11.583c-8.974-31.937-29.707-46.287-46.252-52.718
	c-12.991-5.049-25.136-6.026-31.956-6.102c0.564-32.854-11.686-55.926-22.386-69.729c-5.369-6.928-10.832-12.222-15.323-16.011
	c43.664-5.89,75.178,0.686,94.454,7.614c18.575,6.678,29.379,14.854,32.731,17.643c11.113,58.411,40.254,78.514,62.86,85.069
	c1.345,0.39,2.793,0.198,3.99-0.529c1.197-0.728,2.034-1.925,2.307-3.299c0.128-0.644,0.154-0.775-0.232-23.231l11.347,7.736
	c0.916,0.625,2.083,0.929,3.183,0.855c0.744-0.045,13.498-0.045,14.215-0.002c1.137,0.099,2.268-0.211,3.208-0.854l11.347-7.736
	c-0.386,22.458-0.359,22.591-0.231,23.235c0.273,1.373,1.11,2.568,2.307,3.296c1.197,0.726,2.643,0.918,3.989,0.528
	c22.606-6.556,51.749-26.658,62.862-85.069c3.364-2.798,14.166-10.968,32.73-17.643c19.276-6.93,50.792-13.505,94.454-7.614
	C448.72,151.922,443.257,157.217,437.889,164.144z"/>
<g>
</g>
<g>
</g>
<g>
</g>
<g>
</g>
<g>
</g>
<g>
</g>
<g>
</g>
<g>
</g>
<g>
</g>
<g>
</g>
<g>
</g>
<g>
</g>
<g>
</g>
<g>
</g>
<g>
</g>
</svg>
